<svg xmlns="http://www.w3.org/2000/svg" xmlns:xlink="http://www.w3.org/1999/xlink" version="1.1" id="Layer_1" x="0px" y="0px" viewBox="0 0 512 512" style="enable-background:new 0 0 512 512;" xml:space="preserve"><g><g><g><path d="M256,0C114.618,0,0,114.618,0,256s114.618,256,256,256s256-114.618,256-256S397.382,0,256,0z M256,469.333     c-117.818,0-213.333-95.515-213.333-213.333S138.182,42.667,256,42.667S469.333,138.182,469.333,256S373.818,469.333,256,469.333     z"/><path d="M341.333,213.333c23.573,0,42.667-19.093,42.667-42.667C384,147.093,364.907,128,341.333,128     c-23.573,0-42.667,19.093-42.667,42.667C298.667,194.24,317.76,213.333,341.333,213.333z"/><path d="M170.667,213.333c23.573,0,42.667-19.093,42.667-42.667c0-23.573-19.093-42.667-42.667-42.667     C147.093,128,128,147.093,128,170.667C128,194.24,147.093,213.333,170.667,213.333z"/><path d="M240.915,326.248c-26.463,26.464-71.367,26.464-97.83,0c-8.331-8.331-21.839-8.331-30.17,0     c-8.331,8.331-8.331,21.839,0,30.17c43.126,43.126,115.044,43.126,158.17,0c26.463-26.464,71.367-26.464,97.83,0     c8.331,8.331,21.839,8.331,30.17,0c8.331-8.331,8.331-21.839,0-30.17C355.959,283.123,284.041,283.123,240.915,326.248z"/></g></g></g><g></g><g></g><g></g><g></g><g></g><g></g><g></g><g></g><g></g><g></g><g></g><g></g><g></g><g></g><g></g></svg>