<svg xmlns="http://www.w3.org/2000/svg" id="Capa_1" enable-background="new 0 0 512 512" height="512" viewBox="0 0 512 512" width="512"><g><path d="m268.408 270.507c35.151 0 63.75-28.599 63.75-63.75s-28.599-63.75-63.75-63.75-63.75 28.599-63.75 63.75 28.599 63.75 63.75 63.75zm0-97.5c18.609 0 33.75 15.141 33.75 33.75s-15.141 33.75-33.75 33.75-33.75-15.141-33.75-33.75c0-18.61 15.141-33.75 33.75-33.75z"/><path d="m463.78 269.483-25.076-16.467-55.548 84.584-91.298-30.634-.007.021c-7.347-2.568-15.231-3.982-23.443-3.982-22.112 0-41.904 10.126-54.982 25.984l-.02-.017-62.425 72.473-66.581-51.331-18.316 23.76 89.084 68.68 41.991-48.749v118.195h142.5v-137.743c0-7.174-1.076-14.099-3.058-20.634l58.939 19.776zm-154.122 212.517h-82.5v-107.743c0-22.745 18.505-41.25 41.25-41.25s41.25 18.505 41.25 41.25z"/><path d="m452.654 60.042c-1.712-32.994-28.947-59.362-62.005-60.029-32.119-.632-59.652 22.809-64.082 54.553-.405 2.9-.611 5.871-.611 8.828h30c2.286-21.144 17.192-33.762 34.089-33.387 17.407.351 31.749 14.227 32.65 31.59.48 9.271-2.762 18.07-9.132 24.779-6.374 6.714-14.974 10.411-24.215 10.411h-15v40.3h30v-12.119c11.727-2.875 22.555-9.07 30.972-17.936 12.089-12.734 18.246-29.423 17.334-46.99z"/><path d="m374.348 167.089h30v30h-30z"/><path d="m145.008 244.742c-2.017 21.008-17.125 33.735-34.089 33.387-17.408-.351-31.75-14.227-32.651-31.59-.481-9.271 2.762-18.07 9.132-24.779 6.374-6.714 14.974-10.411 24.215-10.411h15v-40.3h-30v12.119c-11.727 2.875-22.555 9.071-30.972 17.937-12.09 12.733-18.246 29.422-17.334 46.989 1.712 32.994 28.948 59.362 62.006 60.029 31.545 0 59.711-23.236 64.083-54.559.405-2.905.61-5.873.61-8.821h-30z"/><path d="m96.614 111.047h30v30h-30z"/></g></svg>